<?xml version="1.0" encoding="UTF-8"?>
<svg id="Calque_2" data-name="Calque 2" xmlns="http://www.w3.org/2000/svg" viewBox="0 0 2020.05 1114.58">
  <defs>
    <style>
      .cls-1 {
        fill: #fff;
      }
    </style>
  </defs>
  <g id="Calque_1-2" data-name="Calque 1">
    <g>
      <g>
        <g>
          <path class="cls-1" d="m1741.24,697.94c-3,0-5.66-2.01-6.49-4.9l-30.45-106.21c-1.03-3.58,1.05-7.33,4.63-8.36l271.55-77.85c.61-.17,1.24-.26,1.87-.26,3,0,5.66,2.01,6.49,4.9l30.45,106.21c1.03,3.58-1.05,7.33-4.63,8.36l-271.55,77.85c-.61.17-1.24.26-1.87.26Z"/>
          <path d="m1982.35,500.86h0c2.77,0,5.24,1.86,6.01,4.53l30.45,106.21c.46,1.61.27,3.3-.54,4.76-.81,1.46-2.14,2.52-3.75,2.98l-271.55,77.85c-.57.16-1.15.24-1.73.24-2.77,0-5.24-1.86-6.01-4.53l-30.45-106.21c-.46-1.61-.27-3.3.54-4.76.81-1.46,2.14-2.52,3.75-2.98l271.55-77.85c.56-.16,1.15-.24,1.73-.24m0-1c-.66,0-1.33.09-2,.28l-271.55,77.85c-3.85,1.1-6.08,5.12-4.97,8.97l30.45,106.21c.91,3.18,3.82,5.26,6.97,5.26.66,0,1.33-.09,2-.28l271.55-77.85c3.85-1.1,6.08-5.12,4.97-8.97l-30.45-106.21c-.91-3.18-3.82-5.26-6.97-5.26h0Z"/>
        </g>
        <g>
          <path class="cls-1" d="m1450.94,781.17c-3,0-5.67-2.01-6.49-4.9l-30.45-106.21c-1.03-3.58,1.05-7.33,4.63-8.36l271.55-77.85c.61-.17,1.24-.26,1.87-.26,3,0,5.66,2.01,6.49,4.9l30.45,106.21c.5,1.73.29,3.56-.59,5.14-.88,1.58-2.31,2.72-4.05,3.22l-271.55,77.85c-.61.17-1.24.26-1.87.26Z"/>
          <path d="m1692.05,584.09h0c2.77,0,5.24,1.86,6.01,4.53l30.45,106.21c.46,1.61.27,3.3-.54,4.76-.81,1.46-2.14,2.52-3.75,2.98l-271.55,77.85c-.57.16-1.15.24-1.73.24-2.77,0-5.24-1.86-6.01-4.53l-30.45-106.21c-.95-3.32.97-6.79,4.29-7.74l271.55-77.85c.56-.16,1.15-.24,1.73-.24m0-1c-.66,0-1.34.09-2,.28l-271.55,77.85c-3.85,1.1-6.08,5.12-4.97,8.97l30.45,106.21c.91,3.18,3.82,5.26,6.97,5.26.66,0,1.33-.09,2-.28l271.55-77.85c3.85-1.1,6.08-5.12,4.97-8.97l-30.45-106.21c-.91-3.18-3.82-5.26-6.97-5.26h0Z"/>
        </g>
        <g>
          <path class="cls-1" d="m1160.63,864.4c-3,0-5.66-2.01-6.49-4.9l-30.45-106.21c-.5-1.73-.29-3.56.59-5.14s2.31-2.72,4.05-3.22l271.55-77.85c.61-.17,1.24-.26,1.86-.26,3,0,5.67,2.01,6.49,4.9l30.45,106.21c1.03,3.58-1.05,7.33-4.63,8.36l-271.55,77.85c-.61.17-1.24.26-1.87.26Z"/>
          <path d="m1401.74,667.32h0c2.77,0,5.24,1.86,6.01,4.53l30.45,106.21c.46,1.61.27,3.3-.54,4.76-.81,1.46-2.14,2.52-3.75,2.98l-271.55,77.85c-.56.16-1.15.24-1.73.24-2.77,0-5.24-1.86-6.01-4.53l-30.45-106.21c-.46-1.61-.27-3.3.54-4.76.81-1.46,2.14-2.52,3.75-2.98l271.55-77.85c.56-.16,1.15-.24,1.73-.24m0-1c-.66,0-1.34.09-2,.28l-271.55,77.85c-3.85,1.1-6.08,5.12-4.97,8.97l30.45,106.21c.91,3.18,3.82,5.26,6.97,5.26.66,0,1.34-.09,2-.28l271.55-77.85c3.85-1.1,6.08-5.12,4.97-8.97l-30.45-106.21c-.91-3.18-3.82-5.26-6.97-5.26h0Z"/>
        </g>
        <g>
          <path class="cls-1" d="m289.72,1114.08c-3,0-5.66-2.01-6.49-4.9l-30.45-106.21c-1.03-3.58,1.05-7.33,4.63-8.36l271.55-77.85c.61-.17,1.24-.26,1.87-.26,3,0,5.66,2.01,6.49,4.9l30.45,106.21c.5,1.73.29,3.56-.59,5.14-.88,1.58-2.31,2.72-4.05,3.22l-271.55,77.85c-.61.17-1.24.26-1.86.26Z"/>
          <path d="m530.83,917h0c2.77,0,5.24,1.86,6.01,4.53l30.45,106.21c.95,3.32-.97,6.79-4.29,7.74l-271.55,77.85c-.57.16-1.15.24-1.73.24-2.77,0-5.24-1.86-6.01-4.53l-30.45-106.21c-.95-3.32.97-6.79,4.29-7.74l271.55-77.85c.57-.16,1.15-.24,1.73-.24m0-1c-.66,0-1.34.09-2,.28l-271.55,77.85c-3.85,1.1-6.08,5.12-4.97,8.97l30.45,106.21c.91,3.18,3.82,5.26,6.97,5.26.66,0,1.34-.09,2-.28l271.55-77.85c3.85-1.1,6.08-5.12,4.97-8.97l-30.45-106.21c-.91-3.18-3.82-5.26-6.97-5.26h0Z"/>
        </g>
        <g>
          <path class="cls-1" d="m580.02,1030.85c-2.99,0-5.66-2.01-6.49-4.9l-30.45-106.21c-.5-1.73-.29-3.56.59-5.14.88-1.58,2.31-2.72,4.05-3.22l271.55-77.85c.61-.17,1.24-.26,1.87-.26,3,0,5.66,2.01,6.49,4.9l30.45,106.21c.5,1.73.29,3.56-.59,5.14-.88,1.58-2.31,2.72-4.05,3.22l-271.55,77.85c-.61.17-1.24.26-1.87.26Z"/>
          <path d="m821.13,833.77h0c2.77,0,5.24,1.86,6.01,4.53l30.45,106.21c.46,1.61.27,3.3-.54,4.76-.81,1.46-2.14,2.52-3.75,2.98l-271.55,77.85c-.57.16-1.15.24-1.73.24-2.77,0-5.24-1.86-6.01-4.53l-30.45-106.21c-.95-3.32.97-6.79,4.29-7.74l271.55-77.85c.57-.16,1.15-.24,1.73-.24m0-1c-.66,0-1.34.09-2,.28l-271.55,77.85c-3.85,1.1-6.08,5.12-4.97,8.97l30.45,106.21c.91,3.18,3.82,5.26,6.97,5.26.66,0,1.34-.09,2-.28l271.55-77.85c3.85-1.1,6.08-5.12,4.97-8.97l-30.45-106.21c-.91-3.18-3.82-5.26-6.97-5.26h0Z"/>
        </g>
        <g>
          <path class="cls-1" d="m870.33,947.62c-2.99,0-5.66-2.01-6.49-4.9l-30.45-106.21c-.5-1.73-.29-3.56.59-5.14.88-1.58,2.31-2.72,4.05-3.22l271.55-77.85c.61-.17,1.24-.26,1.87-.26,3,0,5.66,2.01,6.49,4.9l30.45,106.21c.5,1.73.29,3.56-.59,5.14s-2.31,2.72-4.05,3.22l-271.55,77.85c-.61.17-1.24.26-1.87.26Z"/>
          <path d="m1111.44,750.55h0c2.77,0,5.24,1.86,6.01,4.53l30.45,106.21c.95,3.32-.97,6.79-4.29,7.74l-271.55,77.85c-.56.16-1.15.24-1.73.24-2.77,0-5.24-1.86-6.01-4.53l-30.45-106.21c-.46-1.61-.27-3.3.54-4.76.81-1.46,2.14-2.52,3.75-2.98l271.55-77.85c.56-.16,1.15-.24,1.73-.24m0-1c-.66,0-1.34.09-2,.28l-271.55,77.85c-3.85,1.1-6.08,5.12-4.97,8.97l30.45,106.21c.91,3.18,3.82,5.26,6.97,5.26.66,0,1.34-.09,2-.28l271.55-77.85c3.85-1.1,6.08-5.12,4.97-8.97l-30.45-106.21c-.91-3.18-3.82-5.26-6.97-5.26h0Z"/>
        </g>
      </g>
      <g>
        <g>
          <path class="cls-1" d="m1560.88,614.93c-3,0-5.66-2.01-6.49-4.9l-30.45-106.21c-.5-1.73-.29-3.56.59-5.14.88-1.58,2.31-2.72,4.05-3.22l271.55-77.85c.61-.17,1.24-.26,1.87-.26,3,0,5.66,2.01,6.49,4.9l30.45,106.21c1.03,3.58-1.05,7.33-4.63,8.36l-271.55,77.85c-.61.17-1.24.26-1.87.26Z"/>
          <path d="m1801.99,417.85h0c2.77,0,5.24,1.86,6.01,4.53l30.45,106.21c.95,3.32-.97,6.79-4.29,7.74l-271.55,77.85c-.57.16-1.15.24-1.73.24-2.77,0-5.24-1.86-6.01-4.53l-30.45-106.21c-.46-1.61-.27-3.3.54-4.76.81-1.46,2.14-2.52,3.75-2.98l271.55-77.85c.56-.16,1.15-.24,1.73-.24m0-1c-.66,0-1.33.09-2,.28l-271.55,77.85c-3.85,1.1-6.08,5.12-4.97,8.97l30.45,106.21c.91,3.18,3.82,5.26,6.97,5.26.66,0,1.33-.09,2-.28l271.55-77.85c3.85-1.1,6.08-5.12,4.97-8.97l-30.45-106.21c-.91-3.18-3.82-5.26-6.97-5.26h0Z"/>
        </g>
        <g>
          <path class="cls-1" d="m1270.58,698.16c-3,0-5.66-2.01-6.49-4.9l-30.45-106.21c-1.03-3.58,1.05-7.33,4.63-8.36l271.55-77.85c.61-.17,1.24-.26,1.87-.26,3,0,5.66,2.01,6.49,4.9l30.45,106.21c1.03,3.58-1.05,7.33-4.63,8.36l-271.55,77.85c-.61.17-1.24.26-1.87.26Z"/>
          <path d="m1511.69,501.08h0c2.77,0,5.24,1.86,6.01,4.53l30.45,106.21c.95,3.32-.97,6.79-4.29,7.74l-271.55,77.85c-.57.16-1.15.24-1.73.24-2.77,0-5.24-1.86-6.01-4.53l-30.45-106.21c-.95-3.32.97-6.79,4.29-7.74l271.55-77.85c.56-.16,1.15-.24,1.73-.24m0-1c-.66,0-1.34.09-2,.28l-271.55,77.85c-3.85,1.1-6.08,5.12-4.97,8.97l30.45,106.21c.91,3.18,3.82,5.26,6.97,5.26.66,0,1.33-.09,2-.28l271.55-77.85c3.85-1.1,6.08-5.12,4.97-8.97l-30.45-106.21c-.91-3.18-3.82-5.26-6.97-5.26h0Z"/>
        </g>
        <g>
          <path class="cls-1" d="m980.27,781.39c-3,0-5.66-2.01-6.49-4.9l-30.45-106.21c-1.03-3.58,1.05-7.33,4.63-8.36l271.55-77.85c.61-.17,1.24-.26,1.87-.26,3,0,5.66,2.01,6.49,4.9l30.45,106.21c.5,1.73.29,3.56-.59,5.14-.88,1.58-2.31,2.72-4.05,3.22l-271.55,77.85c-.61.17-1.24.26-1.86.26Z"/>
          <path d="m1221.38,584.31h0c2.77,0,5.24,1.86,6.01,4.53l30.45,106.21c.46,1.61.27,3.3-.54,4.76-.81,1.46-2.14,2.52-3.75,2.98l-271.55,77.85c-.57.16-1.15.24-1.73.24-2.77,0-5.24-1.86-6.01-4.53l-30.45-106.21c-.46-1.61-.27-3.3.54-4.76.81-1.46,2.14-2.52,3.75-2.98l271.55-77.85c.56-.16,1.15-.24,1.73-.24m0-1c-.66,0-1.34.09-2,.28l-271.55,77.85c-3.85,1.1-6.08,5.12-4.97,8.97l30.45,106.21c.91,3.18,3.82,5.26,6.97,5.26.66,0,1.34-.09,2-.28l271.55-77.85c3.85-1.1,6.08-5.12,4.97-8.97l-30.45-106.21c-.91-3.18-3.82-5.26-6.97-5.26h0Z"/>
        </g>
        <g>
          <path class="cls-1" d="m109.36,1031.07c-2.99,0-5.66-2.01-6.49-4.9l-30.45-106.21c-.5-1.73-.29-3.56.59-5.14.88-1.58,2.31-2.72,4.05-3.22l271.55-77.85c.61-.17,1.24-.26,1.87-.26,2.99,0,5.66,2.01,6.49,4.9l30.45,106.21c.5,1.73.29,3.56-.59,5.14-.88,1.58-2.31,2.72-4.05,3.22l-271.55,77.85c-.61.17-1.24.26-1.87.26Z"/>
          <path d="m350.46,833.99h0c2.77,0,5.24,1.86,6.01,4.53l30.45,106.21c.95,3.32-.97,6.79-4.29,7.74l-271.55,77.85c-.57.16-1.15.24-1.73.24-2.77,0-5.24-1.86-6.01-4.53l-30.45-106.21c-.46-1.61-.27-3.3.54-4.76.81-1.46,2.14-2.52,3.75-2.98l271.55-77.85c.57-.16,1.15-.24,1.73-.24m0-1c-.66,0-1.34.09-2,.28l-271.55,77.85c-3.85,1.1-6.08,5.12-4.97,8.97l30.45,106.21c.91,3.18,3.82,5.26,6.97,5.26.66,0,1.34-.09,2-.28l271.55-77.85c3.85-1.1,6.08-5.12,4.97-8.97l-30.45-106.21c-.91-3.18-3.82-5.26-6.97-5.26h0Z"/>
        </g>
        <g>
          <path class="cls-1" d="m399.66,947.84c-3,0-5.66-2.01-6.49-4.9l-30.45-106.21c-.5-1.73-.29-3.56.59-5.14.88-1.58,2.31-2.72,4.05-3.22l271.55-77.85c.61-.17,1.24-.26,1.87-.26,2.99,0,5.66,2.01,6.49,4.9l30.45,106.21c.5,1.73.29,3.56-.59,5.14-.88,1.58-2.31,2.72-4.05,3.22l-271.55,77.85c-.61.17-1.24.26-1.87.26Z"/>
          <path d="m640.77,750.77h0c2.77,0,5.24,1.86,6.01,4.53l30.45,106.21c.95,3.32-.97,6.79-4.29,7.74l-271.55,77.85c-.57.16-1.15.24-1.73.24-2.77,0-5.24-1.86-6.01-4.53l-30.45-106.21c-.46-1.61-.27-3.3.54-4.76s2.14-2.52,3.75-2.98l271.55-77.85c.56-.16,1.15-.24,1.73-.24m0-1c-.66,0-1.34.09-2,.28l-271.55,77.85c-3.85,1.1-6.08,5.12-4.97,8.97l30.45,106.21c.91,3.18,3.82,5.26,6.97,5.26.66,0,1.34-.09,2-.28l271.55-77.85c3.85-1.1,6.08-5.12,4.97-8.97l-30.45-106.21c-.91-3.18-3.82-5.26-6.97-5.26h0Z"/>
        </g>
        <g>
          <path class="cls-1" d="m689.97,864.61c-3,0-5.66-2.01-6.49-4.9l-30.45-106.21c-.5-1.73-.29-3.56.59-5.14.88-1.58,2.31-2.72,4.05-3.22l271.55-77.85c.61-.17,1.24-.26,1.87-.26,2.99,0,5.66,2.01,6.49,4.9l30.45,106.21c1.03,3.58-1.05,7.33-4.63,8.36l-271.55,77.85c-.61.17-1.24.26-1.87.26Z"/>
          <path d="m931.07,667.54h0c2.77,0,5.24,1.86,6.01,4.53l30.45,106.21c.46,1.61.27,3.3-.54,4.76-.81,1.46-2.14,2.52-3.75,2.98l-271.55,77.85c-.57.16-1.15.24-1.73.24-2.77,0-5.24-1.86-6.01-4.53l-30.45-106.21c-.95-3.32.97-6.79,4.29-7.74l271.55-77.85c.56-.16,1.15-.24,1.73-.24m0-1c-.66,0-1.34.09-2,.28l-271.55,77.85c-3.85,1.1-6.08,5.12-4.97,8.97l30.45,106.21c.91,3.18,3.82,5.26,6.97,5.26.66,0,1.34-.09,2-.28l271.55-77.85c3.85-1.1,6.08-5.12,4.97-8.97l-30.45-106.21c-.91-3.18-3.82-5.26-6.97-5.26h0Z"/>
        </g>
      </g>
      <g>
        <g>
          <path class="cls-1" d="m1669.59,448.01c-3,0-5.66-2.01-6.49-4.9l-30.45-106.21c-1.03-3.58,1.05-7.33,4.63-8.36l271.55-77.85c.61-.17,1.24-.26,1.87-.26,2.99,0,5.66,2.01,6.49,4.9l30.45,106.21c.5,1.73.29,3.56-.59,5.14-.88,1.58-2.31,2.72-4.05,3.22l-271.55,77.85c-.61.17-1.24.26-1.87.26Z"/>
          <path d="m1910.7,250.93h0c2.77,0,5.24,1.86,6.01,4.53l30.45,106.21c.46,1.61.27,3.3-.54,4.76-.81,1.46-2.14,2.52-3.75,2.98l-271.55,77.85c-.56.16-1.15.24-1.73.24-2.77,0-5.24-1.86-6.01-4.53l-30.45-106.21c-.46-1.61-.27-3.3.54-4.76.81-1.46,2.14-2.52,3.75-2.98l271.55-77.85c.56-.16,1.15-.24,1.73-.24m0-1c-.66,0-1.33.09-2,.28l-271.55,77.85c-3.85,1.1-6.08,5.12-4.97,8.97l30.45,106.21c.91,3.18,3.82,5.26,6.97,5.26.66,0,1.34-.09,2-.28l271.55-77.85c3.85-1.1,6.08-5.12,4.97-8.97l-30.45-106.21c-.91-3.18-3.82-5.26-6.97-5.26h0Z"/>
        </g>
        <g>
          <path class="cls-1" d="m1379.29,531.24c-3,0-5.66-2.01-6.49-4.9l-30.45-106.21c-1.03-3.58,1.05-7.33,4.63-8.36l271.55-77.85c.61-.17,1.24-.26,1.87-.26,3,0,5.66,2.01,6.49,4.9l30.45,106.21c1.03,3.58-1.05,7.33-4.63,8.36l-271.55,77.85c-.61.17-1.24.26-1.87.26Z"/>
          <path d="m1620.39,334.16h0c2.77,0,5.24,1.86,6.01,4.53l30.45,106.21c.46,1.61.27,3.3-.54,4.76-.81,1.46-2.14,2.52-3.75,2.98l-271.55,77.85c-.56.16-1.15.24-1.73.24-2.77,0-5.24-1.86-6.01-4.53l-30.45-106.21c-.46-1.61-.27-3.3.54-4.76.81-1.46,2.14-2.52,3.75-2.98l271.55-77.85c.56-.16,1.15-.24,1.73-.24m0-1c-.66,0-1.34.09-2,.28l-271.55,77.85c-3.85,1.1-6.08,5.12-4.97,8.97l30.45,106.21c.91,3.18,3.82,5.26,6.97,5.26.66,0,1.34-.09,2-.28l271.55-77.85c3.85-1.1,6.08-5.12,4.97-8.97l-30.45-106.21c-.91-3.18-3.82-5.26-6.97-5.26h0Z"/>
        </g>
        <g>
          <path class="cls-1" d="m1088.98,614.46c-3,0-5.66-2.01-6.49-4.9l-30.45-106.21c-1.03-3.58,1.05-7.33,4.63-8.36l271.55-77.85c.61-.17,1.24-.26,1.87-.26,2.99,0,5.66,2.01,6.49,4.9l30.45,106.21c.5,1.73.29,3.56-.59,5.14-.88,1.58-2.31,2.72-4.05,3.22l-271.55,77.85c-.61.17-1.24.26-1.87.26Z"/>
          <path d="m1330.09,417.39h0c2.77,0,5.24,1.86,6.01,4.53l30.45,106.21c.95,3.32-.97,6.79-4.29,7.74l-271.55,77.85c-.56.16-1.15.24-1.73.24-2.77,0-5.24-1.86-6.01-4.53l-30.45-106.21c-.46-1.61-.27-3.3.54-4.76.81-1.46,2.14-2.52,3.75-2.98l271.55-77.85c.56-.16,1.15-.24,1.73-.24m0-1c-.66,0-1.33.09-2,.28l-271.55,77.85c-3.85,1.1-6.08,5.12-4.97,8.97l30.45,106.21c.91,3.18,3.82,5.26,6.97,5.26.66,0,1.34-.09,2-.28l271.55-77.85c3.85-1.1,6.08-5.12,4.97-8.97l-30.45-106.21c-.91-3.18-3.82-5.26-6.97-5.26h0Z"/>
        </g>
        <g>
          <path class="cls-1" d="m218.06,864.15c-3,0-5.66-2.01-6.49-4.9l-30.45-106.21c-1.03-3.58,1.05-7.33,4.63-8.36l271.55-77.85c.61-.17,1.24-.26,1.87-.26,2.99,0,5.66,2.01,6.49,4.9l30.45,106.21c.5,1.73.29,3.56-.59,5.14-.88,1.58-2.31,2.72-4.05,3.22l-271.55,77.85c-.61.17-1.24.26-1.86.26Z"/>
          <path d="m459.17,667.07h0c2.77,0,5.24,1.86,6.01,4.53l30.45,106.21c.95,3.32-.97,6.79-4.29,7.74l-271.55,77.85c-.57.16-1.15.24-1.73.24-2.77,0-5.24-1.86-6.01-4.53l-30.45-106.21c-.46-1.61-.27-3.3.54-4.76.81-1.46,2.14-2.52,3.75-2.98l271.55-77.85c.56-.16,1.15-.24,1.73-.24m0-1c-.66,0-1.34.09-2,.28l-271.55,77.85c-3.85,1.1-6.08,5.12-4.97,8.97l30.45,106.21c.91,3.18,3.82,5.26,6.97,5.26.66,0,1.34-.09,2-.28l271.55-77.85c3.85-1.1,6.08-5.12,4.97-8.97l-30.45-106.21c-.91-3.18-3.82-5.26-6.97-5.26h0Z"/>
        </g>
        <g>
          <path class="cls-1" d="m508.37,780.92c-2.99,0-5.66-2.01-6.49-4.9l-30.45-106.21c-1.03-3.58,1.05-7.33,4.63-8.36l271.55-77.85c.61-.17,1.24-.26,1.87-.26,2.99,0,5.66,2.01,6.49,4.9l30.45,106.21c1.03,3.58-1.05,7.33-4.63,8.36l-271.55,77.85c-.61.17-1.24.26-1.87.26Z"/>
          <path d="m749.48,583.84h0c2.77,0,5.24,1.86,6.01,4.53l30.45,106.21c.95,3.32-.97,6.79-4.29,7.74l-271.55,77.85c-.56.16-1.15.24-1.73.24-2.77,0-5.24-1.86-6.01-4.53l-30.45-106.21c-.95-3.32.97-6.79,4.29-7.74l271.55-77.85c.56-.16,1.15-.24,1.73-.24m0-1c-.66,0-1.33.09-2,.28l-271.55,77.85c-3.85,1.1-6.08,5.12-4.97,8.97l30.45,106.21c.91,3.18,3.82,5.26,6.97,5.26.66,0,1.34-.09,2-.28l271.55-77.85c3.85-1.1,6.08-5.12,4.97-8.97l-30.45-106.21c-.91-3.18-3.82-5.26-6.97-5.26h0Z"/>
        </g>
        <g>
          <path class="cls-1" d="m798.67,697.69c-2.99,0-5.66-2.01-6.49-4.9l-30.45-106.21c-.5-1.73-.29-3.56.59-5.14s2.31-2.72,4.05-3.22l271.55-77.85c.61-.17,1.24-.26,1.87-.26,3,0,5.66,2.01,6.49,4.9l30.45,106.21c1.03,3.58-1.05,7.33-4.63,8.36l-271.55,77.85c-.61.17-1.24.26-1.87.26Z"/>
          <path d="m1039.78,500.61h0c2.77,0,5.24,1.86,6.01,4.53l30.45,106.21c.95,3.32-.97,6.79-4.29,7.74l-271.55,77.85c-.56.16-1.15.24-1.73.24-2.77,0-5.24-1.86-6.01-4.53l-30.45-106.21c-.95-3.32.97-6.79,4.29-7.74l271.55-77.85c.56-.16,1.15-.24,1.73-.24m0-1c-.66,0-1.33.09-2,.28l-271.55,77.85c-3.85,1.1-6.08,5.12-4.97,8.97l30.45,106.21c.91,3.18,3.82,5.26,6.97,5.26.66,0,1.34-.09,2-.28l271.55-77.85c3.85-1.1,6.08-5.12,4.97-8.97l-30.45-106.21c-.91-3.18-3.82-5.26-6.97-5.26h0Z"/>
        </g>
      </g>
      <g>
        <g>
          <path class="cls-1" d="m1489.23,365c-3,0-5.66-2.01-6.49-4.9l-30.45-106.21c-1.03-3.58,1.05-7.33,4.63-8.36l271.55-77.85c.61-.17,1.24-.26,1.87-.26,3,0,5.66,2.01,6.49,4.9l30.45,106.21c.5,1.73.29,3.56-.59,5.14s-2.31,2.72-4.05,3.22l-271.55,77.85c-.61.17-1.24.26-1.87.26Z"/>
          <path d="m1730.34,167.92h0c2.77,0,5.24,1.86,6.01,4.53l30.45,106.21c.46,1.61.27,3.3-.54,4.76-.81,1.46-2.14,2.52-3.75,2.98l-271.55,77.85c-.56.16-1.15.24-1.73.24-2.77,0-5.24-1.86-6.01-4.53l-30.45-106.21c-.95-3.32.97-6.79,4.29-7.74l271.55-77.85c.57-.16,1.15-.24,1.73-.24m0-1c-.66,0-1.33.09-2,.28l-271.55,77.85c-3.85,1.1-6.08,5.12-4.97,8.97l30.45,106.21c.91,3.18,3.82,5.26,6.97,5.26.66,0,1.34-.09,2-.28l271.55-77.85c3.85-1.1,6.08-5.12,4.97-8.97l-30.45-106.21c-.91-3.18-3.82-5.26-6.97-5.26h0Z"/>
        </g>
        <g>
          <path class="cls-1" d="m1198.92,448.23c-3,0-5.67-2.01-6.49-4.9l-30.45-106.21c-1.03-3.58,1.05-7.33,4.63-8.36l271.55-77.85c.61-.17,1.24-.26,1.87-.26,3,0,5.66,2.01,6.49,4.9l30.45,106.21c1.03,3.58-1.05,7.33-4.63,8.36l-271.55,77.85c-.61.17-1.24.26-1.87.26Z"/>
          <path d="m1440.03,251.15h0c2.77,0,5.24,1.86,6.01,4.53l30.45,106.21c.46,1.61.27,3.3-.54,4.76-.81,1.46-2.14,2.52-3.75,2.98l-271.55,77.85c-.56.16-1.15.24-1.73.24-2.77,0-5.24-1.86-6.01-4.53l-30.45-106.21c-.46-1.61-.27-3.3.54-4.76.81-1.46,2.14-2.52,3.75-2.98l271.55-77.85c.57-.16,1.15-.24,1.73-.24m0-1c-.66,0-1.33.09-2,.28l-271.55,77.85c-3.85,1.1-6.08,5.12-4.97,8.97l30.45,106.21c.91,3.18,3.82,5.26,6.97,5.26.66,0,1.34-.09,2-.28l271.55-77.85c3.85-1.1,6.08-5.12,4.97-8.97l-30.45-106.21c-.91-3.18-3.82-5.26-6.97-5.26h0Z"/>
        </g>
        <g>
          <path class="cls-1" d="m37.7,781.14c-2.99,0-5.66-2.01-6.49-4.9L.76,670.03c-1.03-3.58,1.05-7.33,4.63-8.36l271.55-77.85c.61-.17,1.24-.26,1.87-.26,2.99,0,5.66,2.01,6.49,4.9l30.45,106.21c1.03,3.58-1.05,7.33-4.63,8.36l-271.55,77.85c-.61.17-1.24.26-1.87.26Z"/>
          <path d="m278.81,584.06h0c2.77,0,5.24,1.86,6.01,4.53l30.45,106.21c.95,3.32-.97,6.79-4.29,7.74l-271.55,77.85c-.56.16-1.15.24-1.73.24-2.77,0-5.24-1.86-6.01-4.53L1.24,669.89c-.46-1.61-.27-3.3.54-4.76.81-1.46,2.14-2.52,3.75-2.98l271.55-77.85c.56-.16,1.15-.24,1.73-.24m0-1c-.66,0-1.34.09-2,.28L5.26,661.2c-3.85,1.1-6.08,5.12-4.97,8.97l30.45,106.21c.91,3.18,3.82,5.26,6.97,5.26.66,0,1.34-.09,2-.28l271.55-77.85c3.85-1.1,6.08-5.12,4.97-8.97l-30.45-106.21c-.91-3.18-3.82-5.26-6.97-5.26h0Z"/>
        </g>
        <g>
          <path class="cls-1" d="m328.01,697.91c-2.99,0-5.66-2.01-6.49-4.9l-30.45-106.21c-1.03-3.58,1.05-7.33,4.63-8.36l271.55-77.85c.61-.17,1.24-.26,1.87-.26,2.99,0,5.66,2.01,6.49,4.9l30.45,106.21c1.03,3.58-1.05,7.33-4.63,8.36l-271.55,77.85c-.61.17-1.24.26-1.87.26Z"/>
          <path d="m569.12,500.83h0c2.77,0,5.24,1.86,6.01,4.53l30.45,106.21c.46,1.61.27,3.3-.54,4.76-.81,1.46-2.14,2.52-3.75,2.98l-271.55,77.85c-.56.16-1.15.24-1.73.24-2.77,0-5.24-1.86-6.01-4.53l-30.45-106.21c-.46-1.61-.27-3.3.54-4.76.81-1.46,2.14-2.52,3.75-2.98l271.55-77.85c.56-.16,1.15-.24,1.73-.24m0-1c-.66,0-1.34.09-2,.28l-271.55,77.85c-3.85,1.1-6.08,5.12-4.97,8.97l30.45,106.21c.91,3.18,3.82,5.26,6.97,5.26.66,0,1.34-.09,2-.28l271.55-77.85c3.85-1.1,6.08-5.12,4.97-8.97l-30.45-106.21c-.91-3.18-3.82-5.26-6.97-5.26h0Z"/>
        </g>
        <g>
          <path class="cls-1" d="m618.31,614.68c-2.99,0-5.66-2.01-6.49-4.9l-30.45-106.21c-1.03-3.58,1.05-7.33,4.63-8.36l271.55-77.85c.61-.17,1.24-.26,1.87-.26,3,0,5.66,2.01,6.49,4.9l30.45,106.21c.5,1.73.29,3.56-.59,5.14-.88,1.58-2.31,2.72-4.05,3.22l-271.55,77.85c-.61.17-1.24.26-1.87.26Z"/>
          <path d="m859.42,417.61h0c2.77,0,5.24,1.86,6.01,4.53l30.45,106.21c.95,3.32-.97,6.79-4.29,7.74l-271.55,77.85c-.56.16-1.15.24-1.73.24-2.77,0-5.24-1.86-6.01-4.53l-30.45-106.21c-.46-1.61-.27-3.3.54-4.76.81-1.46,2.14-2.52,3.75-2.98l271.55-77.85c.56-.16,1.15-.24,1.73-.24m0-1c-.66,0-1.33.09-2,.28l-271.55,77.85c-3.85,1.1-6.08,5.12-4.97,8.97l30.45,106.21c.91,3.18,3.82,5.26,6.97,5.26.66,0,1.34-.09,2-.28l271.55-77.85c3.85-1.1,6.08-5.12,4.97-8.97l-30.45-106.21c-.91-3.18-3.82-5.26-6.97-5.26h0Z"/>
        </g>
      </g>
      <g>
        <g>
          <path class="cls-1" d="m1597.94,198.08c-3,0-5.66-2.01-6.49-4.9l-30.45-106.21c-1.03-3.58,1.05-7.33,4.63-8.36L1837.18.76c.61-.17,1.24-.26,1.87-.26,3,0,5.66,2.01,6.49,4.9l30.45,106.21c.5,1.73.29,3.56-.59,5.14s-2.31,2.72-4.05,3.22l-271.55,77.85c-.61.17-1.24.26-1.87.26Z"/>
          <path d="m1839.05,1h0c2.77,0,5.24,1.86,6.01,4.53l30.45,106.21c.46,1.61.27,3.3-.54,4.76-.81,1.46-2.14,2.52-3.75,2.98l-271.55,77.85c-.57.16-1.15.24-1.73.24-2.77,0-5.24-1.86-6.01-4.53l-30.45-106.21c-.46-1.61-.27-3.3.54-4.76.81-1.46,2.14-2.52,3.75-2.98L1837.32,1.24c.56-.16,1.15-.24,1.73-.24M1839.04,0c-.66,0-1.34.09-2,.28l-271.55,77.85c-3.85,1.1-6.08,5.12-4.97,8.97l30.45,106.21c.91,3.18,3.82,5.26,6.97,5.26.66,0,1.33-.09,2-.28l271.55-77.85c3.85-1.1,6.08-5.12,4.98-8.97l-30.45-106.21C1845.1,2.07,1842.2,0,1839.04,0h0Z"/>
        </g>
        <g>
          <path class="cls-1" d="m1307.63,281.3c-3,0-5.66-2.01-6.49-4.9l-30.45-106.21c-.5-1.73-.29-3.56.59-5.14.88-1.58,2.31-2.72,4.05-3.22l271.55-77.85c.61-.17,1.24-.26,1.87-.26,3,0,5.66,2.01,6.49,4.9l30.45,106.21c1.03,3.58-1.05,7.33-4.63,8.36l-271.55,77.85c-.61.17-1.24.26-1.87.26Z"/>
          <path d="m1548.74,84.23h0c2.77,0,5.24,1.86,6.01,4.53l30.45,106.21c.46,1.61.27,3.3-.54,4.76-.81,1.46-2.14,2.52-3.75,2.98l-271.55,77.85c-.57.16-1.15.24-1.73.24-2.77,0-5.24-1.86-6.01-4.53l-30.45-106.21c-.46-1.61-.27-3.3.54-4.76.81-1.46,2.14-2.52,3.75-2.98l271.55-77.85c.57-.16,1.15-.24,1.73-.24m0-1c-.66,0-1.34.09-2,.28l-271.55,77.85c-3.85,1.1-6.08,5.12-4.97,8.97l30.45,106.21c.91,3.18,3.82,5.26,6.97,5.26.66,0,1.33-.09,2-.28l271.55-77.85c3.85-1.1,6.08-5.12,4.97-8.97l-30.45-106.21c-.91-3.18-3.82-5.26-6.97-5.26h0Z"/>
        </g>
        <g>
          <path class="cls-1" d="m1017.33,364.53c-3,0-5.67-2.01-6.49-4.9l-30.45-106.21c-1.03-3.58,1.05-7.33,4.63-8.36l271.55-77.85c.61-.17,1.24-.26,1.87-.26,3,0,5.66,2.01,6.49,4.9l30.45,106.21c.5,1.73.29,3.56-.59,5.14-.88,1.58-2.31,2.72-4.05,3.22l-271.55,77.85c-.61.17-1.24.26-1.87.26Z"/>
          <path d="m1258.43,167.46h0c2.77,0,5.24,1.86,6.01,4.53l30.45,106.21c.46,1.61.27,3.3-.54,4.76-.81,1.46-2.14,2.52-3.75,2.98l-271.55,77.85c-.56.16-1.15.24-1.73.24-2.77,0-5.24-1.86-6.01-4.53l-30.45-106.21c-.95-3.32.97-6.79,4.29-7.74l271.55-77.85c.57-.16,1.15-.24,1.73-.24m0-1c-.66,0-1.33.09-2,.28l-271.55,77.85c-3.85,1.1-6.08,5.12-4.97,8.97l30.45,106.21c.91,3.18,3.82,5.26,6.97,5.26.66,0,1.34-.09,2-.28l271.55-77.85c3.85-1.1,6.08-5.12,4.97-8.97l-30.45-106.21c-.91-3.18-3.82-5.26-6.97-5.26h0Z"/>
        </g>
        <g>
          <path class="cls-1" d="m146.41,614.21c-3,0-5.66-2.01-6.49-4.9l-30.45-106.21c-.5-1.73-.29-3.56.59-5.14.88-1.58,2.31-2.72,4.05-3.22l271.55-77.85c.61-.17,1.24-.26,1.87-.26,3,0,5.66,2.01,6.49,4.9l30.45,106.21c1.03,3.58-1.05,7.33-4.63,8.36l-271.55,77.85c-.61.17-1.24.26-1.86.26Z"/>
          <path d="m387.52,417.14h0c2.77,0,5.24,1.86,6.01,4.53l30.45,106.21c.46,1.61.27,3.3-.54,4.76-.81,1.46-2.14,2.52-3.75,2.98l-271.55,77.85c-.56.16-1.15.24-1.73.24-2.77,0-5.24-1.86-6.01-4.53l-30.45-106.21c-.46-1.61-.27-3.3.54-4.76.81-1.46,2.14-2.52,3.75-2.98l271.55-77.85c.56-.16,1.15-.24,1.73-.24m0-1c-.66,0-1.34.09-2,.28l-271.55,77.85c-3.85,1.1-6.08,5.12-4.97,8.97l30.45,106.21c.91,3.18,3.82,5.26,6.97,5.26.66,0,1.34-.09,2-.28l271.55-77.85c3.85-1.1,6.08-5.12,4.97-8.97l-30.45-106.21c-.91-3.18-3.82-5.26-6.97-5.26h0Z"/>
        </g>
        <g>
          <path class="cls-1" d="m436.72,530.99c-3,0-5.66-2.01-6.49-4.9l-30.45-106.21c-1.03-3.58,1.05-7.33,4.63-8.36l271.55-77.85c.61-.17,1.24-.26,1.87-.26,3,0,5.66,2.01,6.49,4.9l30.45,106.21c.5,1.73.29,3.56-.59,5.14-.88,1.58-2.31,2.72-4.05,3.22l-271.55,77.85c-.61.17-1.24.26-1.87.26Z"/>
          <path d="m677.82,333.91h0c2.77,0,5.24,1.86,6.01,4.53l30.45,106.21c.46,1.61.27,3.3-.54,4.76-.81,1.46-2.14,2.52-3.75,2.98l-271.55,77.85c-.56.16-1.15.24-1.73.24-2.77,0-5.24-1.86-6.01-4.53l-30.45-106.21c-.95-3.32.97-6.79,4.29-7.74l271.55-77.85c.56-.16,1.15-.24,1.73-.24m0-1c-.66,0-1.34.09-2,.28l-271.55,77.85c-3.85,1.1-6.08,5.12-4.97,8.97l30.45,106.21c.91,3.18,3.82,5.26,6.97,5.26.66,0,1.34-.09,2-.28l271.55-77.85c3.85-1.1,6.08-5.12,4.97-8.97l-30.45-106.21c-.91-3.18-3.82-5.26-6.97-5.26h0Z"/>
        </g>
      </g>
    </g>
  </g>
</svg>