<?xml version="1.0" encoding="UTF-8"?><svg id="b" xmlns="http://www.w3.org/2000/svg" xmlns:xlink="http://www.w3.org/1999/xlink" viewBox="0 0 2300 900"><defs><style>.ab{clip-path:url(#j);}.ac{clip-path:url(#t);}.ad{clip-path:url(#g);}.ae{clip-path:url(#z);}.af{clip-path:url(#r);}.ag{clip-path:url(#p);}.ah{clip-path:url(#d);}.ai{clip-path:url(#v);}.aj{clip-path:url(#m);}.ak{clip-path:url(#x);}.al{clip-path:url(#i);}.am{fill:none;stroke-width:0px;}.an{filter:url(#e);}.ao{clip-path:url(#l);}.ap{clip-path:url(#o);}.aq{clip-path:url(#n);}.ar{clip-path:url(#q);}.as{clip-path:url(#k);}.at{fill:#fff;stroke:#000;stroke-miterlimit:10;}.au{clip-path:url(#u);}.av{clip-path:url(#s);}.aw{clip-path:url(#h);}.ax{clip-path:url(#y);}.ay{clip-path:url(#w);}</style><clipPath id="d"><rect class="am" y="0" width="2300" height="900" rx="100" ry="100"/></clipPath><filter id="e" filterUnits="userSpaceOnUse"><feOffset dx="-3" dy="7"/><feGaussianBlur result="f" stdDeviation="5"/><feFlood flood-color="#000" flood-opacity=".9"/><feComposite in2="f" operator="in"/><feComposite in="SourceGraphic"/></filter><clipPath id="g"><rect class="am" x="506.992" y="-337.328" width="600" height="300" rx="17" ry="17" transform="translate(112.737 264.71) rotate(-20)"/></clipPath><clipPath id="h"><rect class="am" x="-66.049" y="-128.226" width="600" height="300" rx="17" ry="17" transform="translate(6.662 81.329) rotate(-20)"/></clipPath><clipPath id="i"><rect class="am" x="1564.673" y="-384.415" width="600" height="300" rx="17" ry="17" transform="translate(192.628 623.618) rotate(-20)"/></clipPath><clipPath id="j"><rect class="am" x="991.632" y="-175.313" width="600" height="300" rx="17" ry="17" transform="translate(86.552 440.237) rotate(-20)"/></clipPath><clipPath id="k"><rect class="am" x="418.59" y="33.789" width="600" height="300" rx="17" ry="17" transform="translate(-19.523 256.856) rotate(-20)"/></clipPath><clipPath id="l"><rect class="am" x="-154.452" y="242.89" width="600" height="300" rx="17" ry="17" transform="translate(-125.599 73.475) rotate(-20)"/></clipPath><clipPath id="m"><rect class="am" x="2058.539" y="-226.29" width="600" height="300" rx="17" ry="17" transform="translate(168.33 802.065) rotate(-20)"/></clipPath><clipPath id="n"><rect class="am" x="1485.497" y="-17.189" width="600" height="300" rx="17" ry="17" transform="translate(62.254 618.684) rotate(-20)"/></clipPath><clipPath id="o"><rect class="am" x="912.455" y="191.913" width="600" height="300" rx="17" ry="17" transform="translate(-43.821 435.303) rotate(-20)"/></clipPath><clipPath id="p"><rect class="am" x="344.059" y="399.77" width="600" height="300" rx="17" ry="17" transform="translate(-149.191 253.436) rotate(-20)"/></clipPath><clipPath id="q"><rect class="am" x="-233.628" y="610.117" width="600" height="300" rx="17" ry="17" transform="translate(-255.972 68.541) rotate(-20)"/></clipPath><clipPath id="r"><rect class="am" x="1979.362" y="140.936" width="600" height="300" rx="17" ry="17" transform="translate(37.956 797.132) rotate(-20)"/></clipPath><clipPath id="s"><rect class="am" x="1406.321" y="350.038" width="600" height="300" rx="17" ry="17" transform="translate(-68.119 613.751) rotate(-20)"/></clipPath><clipPath id="t"><rect class="am" x="833.279" y="559.139" width="600" height="300" rx="17" ry="17" transform="translate(-174.195 430.37) rotate(-20)"/></clipPath><clipPath id="u"><rect class="am" x="260.237" y="768.241" width="600" height="300" rx="17" ry="17" transform="translate(-280.27 246.989) rotate(-20)"/></clipPath><clipPath id="v"><rect class="am" x="-312.804" y="977.343" width="600" height="300" rx="17" ry="17" transform="translate(-386.346 63.608) rotate(-20)"/></clipPath><clipPath id="w"><rect class="am" x="1890.96" y="512.052" width="600" height="300" rx="17" ry="17" transform="translate(-94.304 789.278) rotate(-20)"/></clipPath><clipPath id="x"><rect class="am" x="1317.918" y="721.154" width="600" height="300" rx="17" ry="17" transform="translate(-200.38 605.897) rotate(-20)"/></clipPath><clipPath id="y"><rect class="am" x="744.877" y="930.256" width="600" height="300" rx="17" ry="17" transform="translate(-306.455 422.515) rotate(-20)"/></clipPath><clipPath id="z"><rect class="am" x="1811.784" y="879.278" width="600" height="300" rx="17" ry="17" transform="translate(-224.678 784.344) rotate(-20)"/></clipPath><image id="aa" width="8000" height="4000" xlink:href="../../imgs/Input/tile elements/OK/C3_ersp_timecourses_V1_Page_1.png"/></defs><g id="c"><g class="ah"><rect class="at" x="-268.5" y="-423" width="2837" height="1746"/><g class="an"><g class="ad"><image width="3200" height="1600" transform="translate(473.782 -225.675) rotate(-20) scale(.187)" xlink:href="../../imgs/Input/tile elements/C3_ersp_timecourses_V2/C3_ersp_timecourses_V2-3.png"/></g><g class="aw"><image width="8000" height="4000" transform="translate(-99.26 -16.574) rotate(-20) scale(.075)" xlink:href="../../imgs/Input/tile elements/OK/eeg_rereferenced.png"/></g><g class="al"><image width="8000" height="4000" transform="translate(1531.462 -272.763) rotate(-20) scale(.075)" xlink:href="../../imgs/Input/tile elements/OK/eeg_epoch_1_psd.png"/></g><g class="ab"><image width="8000" height="4000" transform="translate(958.421 -63.661) rotate(-20) scale(.075)" xlink:href="../../imgs/Input/tile elements/OK/eeg_detrended.png"/></g><g class="as"><image width="3200" height="1600" transform="translate(385.379 145.441) rotate(-20) scale(.188)" xlink:href="../../imgs/Input/tile elements/OK/C3_ersp_timecourses_V1-3.png"/></g><g class="ao"><image width="8000" height="4000" transform="translate(-187.662 354.542) rotate(-20) scale(.075)" xlink:href="../../imgs/Input/tile elements/OK/accelerometer_norms.png"/></g><g class="aj"><image width="3200" height="1600" transform="translate(2025.328 -114.638) rotate(-20) scale(.188)" xlink:href="../../imgs/Input/tile elements/OK/C3_C4_solo_V2_Page_54.png"/></g><g class="aq"><image width="8000" height="4000" transform="translate(1452.286 94.463) rotate(-20) scale(.075)" xlink:href="../../imgs/Input/tile elements/OK/accelerometer_enmo_positions.png"/></g><g class="ap"><image width="3200" height="1600" transform="translate(879.244 303.565) rotate(-20) scale(.188)" xlink:href="../../imgs/Input/tile elements/OK/C4_ersp_timecourses_V2-6.png"/></g><g class="ag"><image width="8000" height="4000" transform="translate(310.848 511.422) rotate(-20) scale(.075)" xlink:href="../../imgs/Input/tile elements/OK/accelerometer_en.png"/></g><g class="ar"><use transform="translate(-266.839 721.769) rotate(-20) scale(.075)" xlink:href="#aa"/></g><g class="af"><use transform="translate(1946.151 252.588) rotate(-20) scale(.075)" xlink:href="#aa"/></g><g class="av"><image width="8000" height="4000" transform="translate(1373.11 461.69) rotate(-20) scale(.075)" xlink:href="../../imgs/Input/tile elements/OK/eeg_filtered.png"/></g><g class="ac"><image width="8000" height="4000" transform="translate(800.068 670.791) rotate(-20) scale(.075)" xlink:href="../../imgs/Input/tile elements/OK/mouse_tangential_speeds.png"/></g><g class="au"><image width="8000" height="4000" transform="translate(227.027 879.893) rotate(-20) scale(.075)" xlink:href="../../imgs/Input/tile elements/OK/mouse_positions_xy.png"/></g><g class="ai"><image width="3200" height="1600" transform="translate(-346.015 1088.995) rotate(-20) scale(.188)" xlink:href="../../imgs/Input/tile elements/OK/C4_ersp_timecourses_V2-5.png"/></g><g class="ay"><image width="3200" height="1600" transform="translate(1857.749 623.704) rotate(-20) scale(.188)" xlink:href="../../imgs/Input/tile elements/C4_ersp_timecourses_V2/C4_ersp_timecourses_V2-3.png"/></g><g class="ak"><image width="8000" height="4000" transform="translate(1284.707 832.806) rotate(-20) scale(.075)" xlink:href="../../imgs/Input/tile elements/OK/accelerometer_enmo.png"/></g><g class="ax"><image width="3200" height="1600" transform="translate(711.666 1041.908) rotate(-20) scale(.188)" xlink:href="../../imgs/Input/tile elements/OK/C3_C4_solo_V2_Page_06.png"/></g><g class="ae"><image width="3200" height="1600" transform="translate(1778.573 990.93) rotate(-20) scale(.188)" xlink:href="../../imgs/Input/tile elements/OK/C3_ersp_timecourses_V1-2.png"/></g></g></g></g></svg>