<?xml version="1.0" encoding="UTF-8"?><svg id="b" xmlns="http://www.w3.org/2000/svg" xmlns:xlink="http://www.w3.org/1999/xlink" viewBox="0 0 4907.028 3158.869"><defs><style>.ac{clip-path:url(#j);}.ad{clip-path:url(#t);}.ae,.af{fill:none;}.ae,.ag{stroke:#000;stroke-miterlimit:10;}.ah{clip-path:url(#g);}.ai{clip-path:url(#z);}.aj{clip-path:url(#r);}.ak{clip-path:url(#p);}.al{clip-path:url(#d);}.am{clip-path:url(#aa);}.an{clip-path:url(#v);}.ao{clip-path:url(#m);}.ap{clip-path:url(#x);}.aq{clip-path:url(#i);}.af{stroke-width:0px;}.ar{filter:url(#e);}.as{clip-path:url(#l);}.at{clip-path:url(#o);}.au{clip-path:url(#n);}.av{clip-path:url(#q);}.aw{clip-path:url(#k);}.ag{fill:#fff;}.ax{clip-path:url(#u);}.ay{clip-path:url(#s);}.az{clip-path:url(#h);}.ba{clip-path:url(#y);}.bb{clip-path:url(#w);}</style><clipPath id="d"><rect class="af" x="1241.059" y="1053.908" width="2300" height="900" rx="100" ry="100"/></clipPath><filter id="e" filterUnits="userSpaceOnUse"><feOffset dx="-3" dy="7"/><feGaussianBlur result="f" stdDeviation="5"/><feFlood flood-color="#000" flood-opacity=".9"/><feComposite in2="f" operator="in"/><feComposite in="SourceGraphic"/></filter><clipPath id="g"><rect class="af" x="1748.051" y="716.581" width="600" height="300" rx="17" ry="17" transform="translate(-172.875 752.735) rotate(-20)"/></clipPath><clipPath id="h"><rect class="af" x="1175.01" y="925.682" width="600" height="300" rx="17" ry="17" transform="translate(-278.951 569.354) rotate(-20)"/></clipPath><clipPath id="i"><rect class="af" x="2805.732" y="669.493" width="600" height="300" rx="17" ry="17" transform="translate(-92.985 1111.643) rotate(-20)"/></clipPath><clipPath id="j"><rect class="af" x="2232.69" y="878.595" width="600" height="300" rx="17" ry="17" transform="translate(-199.06 928.261) rotate(-20)"/></clipPath><clipPath id="k"><rect class="af" x="1659.649" y="1087.697" width="600" height="300" rx="17" ry="17" transform="translate(-305.136 744.88) rotate(-20)"/></clipPath><clipPath id="l"><rect class="af" x="1086.607" y="1296.799" width="600" height="300" rx="17" ry="17" transform="translate(-411.211 561.499) rotate(-20)"/></clipPath><clipPath id="m"><rect class="af" x="3299.597" y="827.618" width="600" height="300" rx="17" ry="17" transform="translate(-117.283 1290.09) rotate(-20)"/></clipPath><clipPath id="n"><rect class="af" x="2726.556" y="1036.72" width="600" height="300" rx="17" ry="17" transform="translate(-223.358 1106.709) rotate(-20)"/></clipPath><clipPath id="o"><rect class="af" x="2153.514" y="1245.821" width="600" height="300" rx="17" ry="17" transform="translate(-329.434 923.328) rotate(-20)"/></clipPath><clipPath id="p"><rect class="af" x="1585.118" y="1453.678" width="600" height="300" rx="17" ry="17" transform="translate(-434.803 741.461) rotate(-20)"/></clipPath><clipPath id="q"><rect class="af" x="1007.431" y="1664.025" width="600" height="300" rx="17" ry="17" transform="translate(-541.585 556.566) rotate(-20)"/></clipPath><clipPath id="r"><rect class="af" x="3220.421" y="1194.844" width="600" height="300" rx="17" ry="17" transform="translate(-247.656 1285.157) rotate(-20)"/></clipPath><clipPath id="s"><rect class="af" x="2647.379" y="1403.946" width="600" height="300" rx="17" ry="17" transform="translate(-353.732 1101.776) rotate(-20)"/></clipPath><clipPath id="t"><rect class="af" x="2074.338" y="1613.048" width="600" height="300" rx="17" ry="17" transform="translate(-459.807 918.394) rotate(-20)"/></clipPath><clipPath id="u"><rect class="af" x="1501.296" y="1822.149" width="600" height="300" rx="17" ry="17" transform="translate(-565.883 735.013) rotate(-20)"/></clipPath><clipPath id="v"><rect class="af" x="928.255" y="2031.251" width="600" height="300" rx="17" ry="17" transform="translate(-671.958 551.632) rotate(-20)"/></clipPath><clipPath id="w"><rect class="af" x="3132.019" y="1565.96" width="600" height="300" rx="17" ry="17" transform="translate(-379.917 1277.302) rotate(-20)"/></clipPath><clipPath id="x"><rect class="af" x="2558.977" y="1775.062" width="600" height="300" rx="17" ry="17" transform="translate(-485.992 1093.921) rotate(-20)"/></clipPath><clipPath id="y"><rect class="af" x="1985.936" y="1984.164" width="600" height="300" rx="17" ry="17" transform="translate(-592.067 910.54) rotate(-20)"/></clipPath><clipPath id="z"><rect class="af" x="3052.842" y="1933.187" width="600" height="300" rx="17" ry="17" transform="translate(-510.29 1272.369) rotate(-20)"/></clipPath><clipPath id="aa"><rect class="af" x="2479.801" y="2142.288" width="600" height="300" rx="17" ry="17" transform="translate(-616.366 1088.988) rotate(-20)"/></clipPath><image id="ab" width="8000" height="4000" xlink:href="../../Input/tile elements/OK/C3_ersp_timecourses_V1_Page_1.png"/></defs><g id="c"><g class="al"><rect class="ag" x="972.559" y="630.908" width="2837" height="1746"/><g class="ar"><rect class="ae" x="3467.176" y="89.275" width="600" height="300" rx="17" ry="17" transform="translate(145.351 1302.878) rotate(-20)"/><rect class="ae" x="2894.134" y="298.377" width="600" height="300" rx="17" ry="17" transform="translate(39.275 1119.497) rotate(-20)"/><rect class="ae" x="2321.093" y="507.479" width="600" height="300" rx="17" ry="17" transform="translate(-66.8 936.116) rotate(-20)"/><g class="ah"><image width="3200" height="1600" transform="translate(1714.84 828.233) rotate(-20) scale(.187)" xlink:href="../../Input/tile elements/C3_ersp_timecourses_V2/C3_ersp_timecourses_V2-3.png"/></g><g class="az"><image width="8000" height="4000" transform="translate(1141.799 1037.335) rotate(-20) scale(.075)" xlink:href="../../Input/tile elements/OK/eeg_rereferenced.png"/></g><rect class="ae" x="601.968" y="1134.784" width="600" height="300" rx="17" ry="17" transform="translate(-385.026 385.972) rotate(-20)"/><rect class="ae" x="28.926" y="1343.886" width="600" height="300" rx="17" ry="17" transform="translate(-491.102 202.591) rotate(-20)"/><rect class="ae" x="3951.815" y="251.29" width="600" height="300" rx="17" ry="17" transform="translate(119.166 1478.405) rotate(-20)"/><rect class="ae" x="3378.774" y="460.391" width="600" height="300" rx="17" ry="17" transform="translate(13.091 1295.024) rotate(-20)"/><g class="aq"><image width="8000" height="4000" transform="translate(2772.521 781.145) rotate(-20) scale(.075)" xlink:href="../../Input/tile elements/OK/eeg_epoch_1_psd.png"/></g><g class="ac"><image width="8000" height="4000" transform="translate(2199.48 990.247) rotate(-20) scale(.075)" xlink:href="../../Input/tile elements/OK/eeg_detrended.png"/></g><g class="aw"><image width="3200" height="1600" transform="translate(1626.438 1199.349) rotate(-20) scale(.188)" xlink:href="../../Input/tile elements/OK/C3_ersp_timecourses_V1-3.png"/></g><g class="as"><image width="8000" height="4000" transform="translate(1053.396 1408.451) rotate(-20) scale(.075)" xlink:href="../../Input/tile elements/OK/accelerometer_norms.png"/></g><rect class="ae" x="513.566" y="1505.9" width="600" height="300" rx="17" ry="17" transform="translate(-517.287 378.118) rotate(-20)"/><rect class="ae" x="3872.639" y="618.516" width="600" height="300" rx="17" ry="17" transform="translate(-11.207 1473.471) rotate(-20)"/><g class="ao"><image width="3200" height="1600" transform="translate(3266.387 939.27) rotate(-20) scale(.188)" xlink:href="../../Input/tile elements/OK/C3_C4_solo_V2_Page_54.png"/></g><g class="au"><image width="8000" height="4000" transform="translate(2693.345 1148.372) rotate(-20) scale(.075)" xlink:href="../../Input/tile elements/OK/accelerometer_enmo_positions.png"/></g><g class="at"><image width="3200" height="1600" transform="translate(2120.303 1357.473) rotate(-20) scale(.188)" xlink:href="../../Input/tile elements/OK/C4_ersp_timecourses_V2-6.png"/></g><g class="ak"><image width="8000" height="4000" transform="translate(1551.907 1565.33) rotate(-20) scale(.075)" xlink:href="../../Input/tile elements/OK/accelerometer_en.png"/></g><g class="av"><use transform="translate(974.22 1775.677) rotate(-20) scale(.075)" xlink:href="#ab"/></g><rect class="ae" x="434.389" y="1873.127" width="600" height="300" rx="17" ry="17" transform="translate(-647.66 373.185) rotate(-20)"/><rect class="ae" x="3793.463" y="985.742" width="600" height="300" rx="17" ry="17" transform="translate(-141.581 1468.538) rotate(-20)"/><g class="aj"><use transform="translate(3187.21 1306.496) rotate(-20) scale(.075)" xlink:href="#ab"/></g><g class="ay"><image width="8000" height="4000" transform="translate(2614.169 1515.598) rotate(-20) scale(.075)" xlink:href="../../Input/tile elements/OK/eeg_filtered.png"/></g><g class="ad"><image width="8000" height="4000" transform="translate(2041.127 1724.7) rotate(-20) scale(.075)" xlink:href="../../Input/tile elements/OK/mouse_tangential_speeds.png"/></g><g class="ax"><image width="8000" height="4000" transform="translate(1468.085 1933.802) rotate(-20) scale(.075)" xlink:href="../../Input/tile elements/OK/mouse_positions_xy.png"/></g><g class="an"><image width="3200" height="1600" transform="translate(895.044 2142.903) rotate(-20) scale(.188)" xlink:href="../../Input/tile elements/OK/C4_ersp_timecourses_V2-5.png"/></g><rect class="ae" x="355.213" y="2240.353" width="600" height="300" rx="17" ry="17" transform="translate(-778.033 368.251) rotate(-20)"/><rect class="ae" x="4278.102" y="1147.757" width="600" height="300" rx="17" ry="17" transform="translate(-167.766 1644.065) rotate(-20)"/><rect class="ae" x="3705.06" y="1356.858" width="600" height="300" rx="17" ry="17" transform="translate(-273.841 1460.683) rotate(-20)"/><g class="bb"><image width="3200" height="1600" transform="translate(3098.808 1677.612) rotate(-20) scale(.188)" xlink:href="../../Input/tile elements/C4_ersp_timecourses_V2/C4_ersp_timecourses_V2-3.png"/></g><g class="ap"><image width="8000" height="4000" transform="translate(2525.766 1886.714) rotate(-20) scale(.075)" xlink:href="../../Input/tile elements/OK/accelerometer_enmo.png"/></g><g class="ba"><image width="3200" height="1600" transform="translate(1952.725 2095.816) rotate(-20) scale(.188)" xlink:href="../../Input/tile elements/OK/C3_C4_solo_V2_Page_06.png"/></g><rect class="ae" x="1412.894" y="2193.266" width="600" height="300" rx="17" ry="17" transform="translate(-698.143 727.159) rotate(-20)"/><rect class="ae" x="839.852" y="2402.367" width="600" height="300" rx="17" ry="17" transform="translate(-804.218 543.778) rotate(-20)"/><rect class="ae" x="4198.926" y="1514.983" width="600" height="300" rx="17" ry="17" transform="translate(-298.139 1639.131) rotate(-20)"/><rect class="ae" x="3625.884" y="1724.085" width="600" height="300" rx="17" ry="17" transform="translate(-404.215 1455.75) rotate(-20)"/><g class="ai"><image width="3200" height="1600" transform="translate(3019.632 2044.839) rotate(-20) scale(.188)" xlink:href="../../Input/tile elements/OK/C3_ersp_timecourses_V1-2.png"/></g><g class="am"><image width="8000" height="4000" transform="translate(2446.59 2253.94) rotate(-20) scale(.075)" xlink:href="../../Input/tile elements/OK/eeg_epoch_1.png"/></g><rect class="ae" x="1906.759" y="2351.39" width="600" height="300" rx="17" ry="17" transform="translate(-722.441 905.607) rotate(-20)"/><rect class="ae" x="1333.718" y="2560.492" width="600" height="300" rx="17" ry="17" transform="translate(-828.516 722.226) rotate(-20)"/><rect class="ae" x="760.676" y="2769.594" width="600" height="300" rx="17" ry="17" transform="translate(-934.592 538.844) rotate(-20)"/></g></g></g></svg>